<?xml version="1.0"?>
<svg width="640" height="480" xmlns="http://www.w3.org/2000/svg" xmlns:svg="http://www.w3.org/2000/svg">
 <!-- Created with SVG-edit - https://github.com/SVG-Edit/svgedit-->
 <g class="layer">
  <title>Layer 1</title>
  <path d="m76.33,81c0.01,2.08 0.06,2.89 0.13,3.42c0.08,0.63 0.21,1.37 0.39,2.24c0.46,2.19 0.81,3.51 1.2,4.99c0.42,1.62 0.89,3.35 1.37,5.18c0.51,1.91 1.04,3.88 1.55,5.9c1.05,4.09 1.53,6.14 1.99,8.18c0.46,2.03 0.9,4.06 1.31,6.08c0.41,2.02 0.81,4.05 1.17,6.08c0.74,4.08 1.07,6.14 1.4,8.19c0.33,2.06 0.66,4.1 0.98,6.14c0.32,2.01 0.64,4 0.98,5.96c0.66,3.8 1.03,5.62 1.4,7.4c0.36,1.74 0.74,3.45 1.12,5.12c0.37,1.65 0.75,3.28 1.12,4.9c0.72,3.21 1.07,4.81 1.4,6.42c0.34,1.62 0.67,3.27 1,4.94c0.34,1.71 0.69,3.45 1.05,5.25c0.76,3.77 1.17,5.75 1.6,7.78c0.43,2.06 0.87,4.13 1.31,6.2c0.43,2.03 0.86,4.01 1.27,5.92c0.75,3.53 1.09,5.12 1.4,6.59c0.29,1.37 0.56,2.65 0.81,3.86c0.24,1.15 0.48,2.25 0.72,3.32c0.48,2.1 0.74,3.15 1,4.21c0.26,1.06 0.53,2.1 0.78,3.14c0.25,1.01 0.49,2 0.69,2.96c0.38,1.79 0.5,2.62 0.6,3.4c0.1,0.73 0.17,1.43 0.23,2.08c0.06,0.62 0.11,1.21 0.19,1.77c0.15,1.05 0.27,1.54 0.4,2c0.13,0.45 0.28,0.88 0.43,1.29c0.15,0.39 0.3,0.76 0.43,1.11c0.24,0.64 0.33,0.93 0.4,1.2c0.06,0.25 0.1,0.48 0.13,0.69c0.02,0.19 0.03,0.36 0.04,0.51c0.01,0.24 0,0.33 0,0.4c0,0.06 0.01,0.11 0.02,0.15c0.01,0.04 0.03,0.07 0.06,0.1c0.08,0.09 0.14,0.14 0.2,0.2c0.07,0.07 0.14,0.15 0.22,0.24c0.08,0.09 0.15,0.18 0.22,0.28c0.13,0.19 0.16,0.3 0.2,0.39c0.04,0.09 0.06,0.18 0.1,0.24c0.04,0.06 0.09,0.11 0.15,0.11c0.17,0 0.28,-0.11 0.4,-0.2c0.15,-0.11 0.31,-0.25 0.49,-0.41c0.2,-0.17 0.4,-0.35 0.63,-0.54c0.48,-0.4 0.74,-0.6 1,-0.81c0.29,-0.23 0.6,-0.48 0.93,-0.78c0.37,-0.33 0.77,-0.72 1.2,-1.18c1.03,-1.11 1.58,-1.82 2.2,-2.6c0.67,-0.85 1.37,-1.76 2.12,-2.74c0.78,-1.02 1.59,-2.09 2.43,-3.19c1.75,-2.27 2.67,-3.42 3.59,-4.59c0.93,-1.18 1.88,-2.37 2.81,-3.59c0.94,-1.23 1.88,-2.48 2.77,-3.77c1.79,-2.61 2.61,-4 3.4,-5.41c0.81,-1.44 1.58,-2.95 2.33,-4.52c0.78,-1.63 1.54,-3.34 2.29,-5.15c1.6,-3.88 2.38,-5.99 3.2,-8.19c0.84,-2.27 1.68,-4.59 2.51,-6.95c0.84,-2.38 1.66,-4.76 2.47,-7.13c1.56,-4.61 2.29,-6.83 2.99,-8.98c0.68,-2.09 1.34,-4.13 1.95,-6.13c0.61,-1.95 1.19,-3.87 1.73,-5.77c1.06,-3.72 1.54,-5.57 2,-7.4c0.46,-1.81 0.89,-3.61 1.31,-5.39c0.41,-1.75 0.8,-3.47 1.17,-5.16c0.73,-3.27 1.07,-4.86 1.4,-6.4c0.32,-1.51 0.63,-2.99 0.91,-4.44c0.27,-1.42 0.53,-2.83 0.73,-4.21c0.39,-2.72 0.5,-4.07 0.6,-5.39c0.1,-1.3 0.15,-2.57 0.19,-3.79c0.04,-1.17 0.05,-2.29 0.06,-3.34c0.01,-1.87 0,-2.68 0,-3.41c0,-0.68 -0.01,-1.32 -0.02,-1.94c-0.01,-0.61 -0.03,-1.24 -0.06,-1.89c-0.07,-1.46 -0.13,-2.3 -0.2,-3.2c-0.07,-0.96 -0.14,-1.95 -0.22,-2.97c-0.08,-1.03 -0.15,-2.05 -0.22,-3.06c-0.12,-1.9 -0.16,-2.77 -0.2,-3.59c-0.03,-0.76 -0.06,-1.48 -0.08,-2.15c-0.02,-0.63 -0.05,-1.23 -0.08,-1.79c-0.07,-1.05 -0.13,-1.54 -0.2,-2.01c-0.06,-0.46 -0.14,-0.9 -0.22,-1.33c-0.07,-0.42 -0.15,-0.83 -0.22,-1.24c-0.13,-0.8 -0.17,-1.2 -0.2,-1.6c-0.03,-0.39 -0.05,-0.76 -0.06,-1.12c-0.01,-0.34 -0.02,-0.65 -0.02,-0.94c0,-0.47 0,-0.66 0,-0.8c0,-0.12 0,-0.22 0,-0.3c0,-0.07 0,-0.14 0,-0.21c0,-0.17 0,-0.28 0,-0.4c0,-0.14 0,-0.29 0,-0.45c0,-0.16 0,-0.33 0,-0.5c0,-0.32 0,-0.46 0,-0.6c0,-0.13 0,-0.25 0,-0.36c0,-0.11 0,-0.22 0,-0.32c0,-0.2 0,-0.3 0,-0.4c0,-0.09 0,-0.18 0,-0.26c0,-0.07 0,-0.13 0,-0.17c0,-0.04 0,-0.03 0,0c0,0.04 0,0.1 0,0.17c0,0.08 0,0.17 0,0.26c0,0.2 0,0.3 0,0.4c0,0.11 0.01,0.23 0.02,0.36c0.01,0.15 0.03,0.31 0.06,0.49c0.07,0.45 0.13,0.71 0.2,1.01c0.08,0.33 0.17,0.71 0.27,1.12c0.12,0.46 0.25,0.97 0.41,1.53c0.36,1.29 0.57,2.02 0.81,2.82c0.27,0.88 0.57,1.86 0.93,2.92c0.39,1.18 0.85,2.49 1.38,3.92c1.22,3.3 1.98,5.17 2.79,7.18c0.86,2.13 1.78,4.36 2.73,6.65c0.97,2.35 1.96,4.72 2.95,7.1c1.95,4.69 2.88,6.96 3.79,9.18c0.89,2.17 1.75,4.3 2.59,6.39c0.83,2.06 1.65,4.1 2.46,6.12c1.61,4.01 2.4,6.01 3.2,8c0.8,1.99 1.6,3.96 2.4,5.92c0.8,1.94 1.59,3.86 2.4,5.74c1.58,3.68 2.4,5.46 3.2,7.21c0.8,1.73 1.6,3.45 2.4,5.17c0.8,1.73 1.61,3.48 2.4,5.26c1.62,3.68 2.41,5.62 3.19,7.59c0.79,1.99 1.56,3.99 2.3,5.98c0.73,1.95 1.43,3.86 2.08,5.71c1.21,3.41 1.72,4.96 2.2,6.39c0.44,1.32 0.84,2.54 1.2,3.68c0.34,1.05 0.64,2.02 0.93,2.91c0.52,1.61 0.77,2.34 1.01,3.02c0.23,0.65 0.46,1.28 0.68,1.9c0.22,0.61 0.45,1.23 0.68,1.86c0.49,1.33 0.74,2.05 1,2.8c0.27,0.77 0.54,1.56 0.82,2.34c0.27,0.78 0.54,1.55 0.82,2.3c0.51,1.39 0.76,2.01 1,2.59c0.22,0.54 0.44,1.03 0.65,1.48c0.19,0.42 0.38,0.81 0.55,1.17c0.32,0.65 0.47,0.93 0.6,1.21c0.13,0.26 0.25,0.51 0.36,0.75c0.11,0.24 0.22,0.47 0.32,0.7c0.21,0.48 0.3,0.74 0.4,1c0.1,0.26 0.19,0.53 0.28,0.8c0.09,0.26 0.17,0.51 0.24,0.75c0.12,0.43 0.17,0.63 0.2,0.8c0.03,0.15 0.06,0.29 0.08,0.41c0.02,0.11 0.04,0.2 0.08,0.27c0.07,0.13 0.14,0.17 0.2,0.2c0.07,0.03 0.14,0.05 0.22,0.06c0.07,0.01 0.15,0.02 0.22,0.02c0.12,0 0.16,0 0.2,0c0.03,0 0.06,0 0.08,0c0.03,0 0.05,0 0.08,0c0.08,0 0.14,0 0.2,0c0.07,0 0.15,-0.01 0.24,-0.02c0.09,-0.01 0.19,-0.03 0.28,-0.06c0.2,-0.07 0.3,-0.13 0.4,-0.2c0.1,-0.08 0.2,-0.17 0.3,-0.29c0.11,-0.13 0.21,-0.29 0.3,-0.47c0.22,-0.43 0.3,-0.71 0.4,-1c0.11,-0.32 0.21,-0.66 0.32,-1.03c0.12,-0.38 0.23,-0.79 0.36,-1.21c0.28,-0.88 0.43,-1.33 0.6,-1.81c0.18,-0.5 0.37,-1.03 0.57,-1.59c0.22,-0.61 0.46,-1.27 0.71,-2c0.57,-1.65 0.87,-2.59 1.2,-3.6c0.34,-1.07 0.69,-2.19 1.03,-3.35c0.35,-1.19 0.7,-2.39 1.03,-3.62c0.65,-2.42 0.93,-3.62 1.2,-4.79c0.27,-1.16 0.52,-2.33 0.77,-3.49c0.25,-1.17 0.5,-2.34 0.77,-3.53c0.55,-2.45 0.87,-3.71 1.21,-5.01c0.35,-1.35 0.73,-2.74 1.15,-4.18c0.43,-1.51 0.91,-3.08 1.42,-4.72c1.11,-3.53 1.74,-5.42 2.39,-7.39c0.67,-2.02 1.36,-4.08 2.04,-6.16c0.69,-2.09 1.37,-4.16 2,-6.21c1.21,-3.93 1.72,-5.8 2.19,-7.58c0.45,-1.71 0.85,-3.37 1.22,-4.96c0.36,-1.53 0.68,-3.02 1,-4.46c0.61,-2.77 0.91,-4.1 1.21,-5.42c0.3,-1.31 0.6,-2.63 0.88,-3.97c0.29,-1.37 0.58,-2.77 0.84,-4.24c0.55,-3.13 0.77,-4.83 1,-6.59c0.24,-1.81 0.45,-3.66 0.66,-5.52c0.21,-1.86 0.41,-3.69 0.62,-5.48c0.39,-3.38 0.6,-4.93 0.8,-6.38c0.19,-1.37 0.39,-2.66 0.6,-3.87c0.19,-1.14 0.39,-2.22 0.6,-3.24c0.39,-1.89 0.6,-2.77 0.8,-3.61c0.2,-0.81 0.4,-1.59 0.6,-2.34c0.2,-0.73 0.4,-1.43 0.6,-2.11c0.39,-1.33 0.6,-1.97 0.8,-2.61c0.2,-0.63 0.4,-1.27 0.6,-1.9c0.2,-0.64 0.4,-1.29 0.6,-1.95c0.41,-1.36 0.6,-2.07 0.8,-2.79c0.2,-0.73 0.4,-1.46 0.6,-2.17c0.2,-0.7 0.39,-1.39 0.6,-2.04c0.38,-1.2 0.59,-1.72 0.8,-2.2c0.19,-0.44 0.39,-0.85 0.6,-1.22c0.19,-0.35 0.4,-0.68 0.6,-1c0.39,-0.61 0.6,-0.91 0.8,-1.21c0.2,-0.3 0.39,-0.6 0.56,-0.9c0.17,-0.3 0.34,-0.6 0.47,-0.9c0.26,-0.59 0.33,-0.9 0.4,-1.2c0.07,-0.29 0.12,-0.57 0.17,-0.84c0.05,-0.25 0.09,-0.5 0.17,-0.71c0.14,-0.37 0.27,-0.5 0.4,-0.6c0.13,-0.1 0.28,-0.17 0.43,-0.23c0.15,-0.06 0.3,-0.11 0.43,-0.19c0.25,-0.15 0.33,-0.27 0.4,-0.4c0.07,-0.13 0.11,-0.28 0.15,-0.43c0.04,-0.15 0.06,-0.3 0.1,-0.43c0.07,-0.24 0.13,-0.33 0.2,-0.4c0.07,-0.07 0.15,-0.11 0.24,-0.15c0.09,-0.04 0.18,-0.07 0.28,-0.1c0.2,-0.08 0.3,-0.14 0.4,-0.2c0.1,-0.07 0.19,-0.14 0.28,-0.22c0.09,-0.07 0.16,-0.15 0.24,-0.22c0.12,-0.12 0.16,-0.16 0.2,-0.2c0.03,-0.03 0.05,-0.05 0.06,-0.05c0.01,0 0.02,0.02 0.02,0.05c0.01,0.08 0,0.14 0,0.2c0,0.08 0,0.18 0,0.29c0,0.14 0,0.29 0,0.47c0,0.44 0,0.71 0,1.01c0,0.34 0,0.72 0,1.14c0,0.48 0,1.01 0,1.59c0,1.37 0,2.15 0,3c0,0.91 0.01,1.88 0.02,2.91c0.01,1.07 0.03,2.19 0.06,3.36c0.07,2.44 0.13,3.7 0.2,4.99c0.07,1.31 0.16,2.64 0.25,3.99c0.1,1.35 0.21,2.72 0.35,4.08c0.26,2.72 0.43,4.06 0.61,5.41c0.18,1.37 0.39,2.77 0.63,4.22c0.26,1.51 0.55,3.09 0.9,4.76c0.77,3.67 1.27,5.67 1.8,7.79c0.55,2.21 1.15,4.5 1.8,6.83c0.65,2.36 1.34,4.74 2.07,7.09c1.44,4.63 2.22,6.83 3,8.99c0.76,2.11 1.56,4.17 2.37,6.19c0.81,2.01 1.65,3.99 2.51,5.97c1.74,3.98 2.67,5.98 3.6,8.01c0.93,2.04 1.88,4.07 2.83,6.11c0.95,2.03 1.9,4.06 2.83,6.07c1.84,3.95 2.73,5.89 3.6,7.8c0.86,1.89 1.72,3.77 2.57,5.63c0.85,1.86 1.7,3.72 2.57,5.59c1.76,3.77 2.67,5.68 3.6,7.59c0.93,1.92 1.85,3.82 2.77,5.7c0.9,1.84 1.79,3.64 2.64,5.38c1.59,3.26 2.32,4.77 3,6.19c0.64,1.34 1.25,2.62 1.82,3.82c0.55,1.15 1.07,2.24 1.6,3.28c0.99,1.97 1.5,2.91 2,3.81c0.49,0.88 0.97,1.74 1.44,2.57c0.46,0.81 0.9,1.61 1.31,2.39c0.78,1.51 1.1,2.26 1.4,3c0.29,0.71 0.55,1.4 0.79,2.07c0.23,0.63 0.44,1.24 0.66,1.8c0.39,1 0.6,1.42 0.8,1.8c0.19,0.34 0.38,0.65 0.56,0.92c0.17,0.25 0.33,0.48 0.47,0.7c0.25,0.4 0.33,0.6 0.4,0.8c0.07,0.19 0.11,0.38 0.15,0.56c0.04,0.17 0.06,0.33 0.1,0.47c0.07,0.24 0.13,0.33 0.2,0.4c0.07,0.07 0.15,0.11 0.24,0.15c0.09,0.04 0.18,0.07 0.28,0.1c0.2,0.08 0.3,0.14 0.4,0.2c0.1,0.07 0.19,0.15 0.28,0.24c0.09,0.09 0.17,0.18 0.24,0.28c0.13,0.19 0.17,0.3 0.2,0.4c0.03,0.1 0.05,0.19 0.06,0.28c0.01,0.08 0.02,0.16 0.02,0.24c0,0.12 0,0.16 0,0.2c0,0.02 0.01,0.03 0.02,0.03c0.02,-0.02 0.04,-0.06 0.06,-0.11c0.08,-0.16 0.14,-0.27 0.2,-0.4c0.07,-0.14 0.14,-0.29 0.22,-0.45c0.08,-0.16 0.15,-0.33 0.22,-0.5c0.12,-0.31 0.17,-0.46 0.2,-0.61c0.04,-0.16 0.08,-0.34 0.12,-0.56c0.06,-0.26 0.12,-0.58 0.21,-0.96c0.24,-1.02 0.41,-1.66 0.6,-2.41c0.21,-0.83 0.45,-1.74 0.69,-2.73c0.26,-1.06 0.52,-2.18 0.78,-3.36c0.54,-2.51 0.77,-3.83 1,-5.2c0.24,-1.41 0.47,-2.88 0.7,-4.4c0.24,-1.58 0.49,-3.23 0.75,-4.94c0.56,-3.65 0.87,-5.58 1.2,-7.59c0.34,-2.08 0.7,-4.21 1.07,-6.38c0.38,-2.22 0.77,-4.47 1.16,-6.74c0.8,-4.59 1.19,-6.89 1.6,-9.2c0.41,-2.32 0.84,-4.67 1.3,-7.04c0.47,-2.41 0.96,-4.86 1.52,-7.35c1.17,-5.18 1.87,-7.85 2.59,-10.58c0.74,-2.77 1.51,-5.54 2.3,-8.31c0.78,-2.75 1.57,-5.45 2.34,-8.09c1.47,-5.01 2.15,-7.36 2.79,-9.59c0.61,-2.13 1.19,-4.18 1.74,-6.15c0.53,-1.91 1.03,-3.76 1.51,-5.57c0.93,-3.53 1.37,-5.28 1.81,-7.02c0.44,-1.74 0.87,-3.48 1.3,-5.22c0.44,-1.76 0.88,-3.53 1.35,-5.31c0.95,-3.65 1.47,-5.51 2,-7.39c0.53,-1.89 1.08,-3.77 1.63,-5.63c0.55,-1.83 1.09,-3.63 1.63,-5.36c1.02,-3.27 1.52,-4.77 2,-6.19c0.45,-1.34 0.88,-2.6 1.31,-3.78c0.4,-1.12 0.79,-2.17 1.17,-3.15c0.71,-1.81 1.06,-2.63 1.4,-3.41c0.32,-0.74 0.64,-1.44 0.95,-2.1c0.29,-0.64 0.58,-1.24 0.85,-1.83c0.52,-1.12 0.77,-1.67 1,-2.21c0.23,-0.53 0.46,-1.06 0.68,-1.58c0.23,-0.53 0.45,-1.05 0.68,-1.58c0.48,-1.08 0.73,-1.64 1,-2.2c0.27,-0.56 0.55,-1.12 0.85,-1.66c0.3,-0.53 0.6,-1.05 0.95,-1.52c0.65,-0.9 1.03,-1.26 1.4,-1.6c0.36,-0.32 0.73,-0.61 1.1,-0.88c0.36,-0.26 0.72,-0.5 1.05,-0.74c0.65,-0.47 0.93,-0.74 1.2,-1c0.26,-0.26 0.49,-0.54 0.71,-0.82c0.21,-0.27 0.4,-0.54 0.57,-0.82c0.33,-0.51 0.47,-0.76 0.6,-1c0.13,-0.22 0.25,-0.44 0.36,-0.64c0.11,-0.2 0.21,-0.38 0.32,-0.56c0.2,-0.32 0.3,-0.47 0.4,-0.6c0.1,-0.13 0.21,-0.25 0.32,-0.36c0.11,-0.11 0.23,-0.22 0.36,-0.32c0.28,-0.21 0.43,-0.3 0.6,-0.4c0.16,-0.1 0.33,-0.19 0.5,-0.28c0.16,-0.09 0.31,-0.16 0.45,-0.24c0.24,-0.12 0.33,-0.16 0.4,-0.2c0.06,-0.03 0.1,-0.05 0.13,-0.04c0.02,0 0.04,0.02 0.04,0.04c0.01,0.08 0,0.13 0,0.2c0,0.07 0,0.15 0,0.24c0,0.09 0,0.18 0,0.28c0,0.2 0,0.3 0,0.4c0,0.11 0,0.22 0,0.34c0,0.13 0,0.27 0,0.43c0,0.36 0,0.57 0,0.81c0,0.26 0,0.55 0,0.87c0,0.36 0,0.75 0,1.18c0,1 0,1.58 0,2.2c0,0.67 0,1.37 0,2.12c0,0.78 0,1.59 0,2.43c0,1.76 0,2.67 0,3.6c0,0.96 0.01,1.94 0.04,2.95c0.03,1.04 0.06,2.11 0.13,3.22c0.14,2.32 0.27,3.54 0.4,4.8c0.14,1.29 0.3,2.6 0.47,3.94c0.18,1.36 0.37,2.73 0.56,4.12c0.39,2.8 0.59,4.2 0.81,5.61c0.21,1.43 0.45,2.89 0.72,4.38c0.28,1.54 0.6,3.13 0.99,4.78c0.84,3.54 1.4,5.43 1.99,7.38c0.61,2.01 1.26,4.05 1.93,6.09c0.67,2.03 1.35,4.02 2.03,5.95c1.26,3.61 1.85,5.25 2.39,6.78c0.51,1.43 0.99,2.77 1.46,4.02c0.44,1.18 0.86,2.29 1.28,3.34c0.79,1.98 1.2,2.91 1.61,3.82c0.4,0.9 0.81,1.79 1.22,2.67c0.41,0.89 0.84,1.79 1.26,2.72c0.89,1.93 1.34,2.95 1.8,4c0.47,1.07 0.94,2.15 1.42,3.22c0.47,1.07 0.94,2.12 1.42,3.13c0.9,1.91 1.36,2.78 1.8,3.6c0.42,0.78 0.85,1.52 1.26,2.23c0.41,0.69 0.82,1.37 1.22,2.05c0.81,1.37 1.2,2.08 1.6,2.81c0.4,0.74 0.79,1.48 1.18,2.23c0.39,0.75 0.76,1.49 1.14,2.23c0.72,1.43 1.06,2.13 1.4,2.8c0.33,0.67 0.67,1.34 1,2.01c0.34,0.68 0.69,1.38 1.05,2.1c0.76,1.53 1.17,2.35 1.6,3.2c0.43,0.87 0.87,1.76 1.31,2.64c0.44,0.88 0.86,1.75 1.27,2.6c0.76,1.59 1.09,2.31 1.4,2.99c0.28,0.63 0.54,1.23 0.77,1.78c0.22,0.52 0.42,1.01 0.59,1.47c0.33,0.84 0.47,1.23 0.61,1.61c0.13,0.35 0.26,0.69 0.38,1.01c0.12,0.31 0.24,0.6 0.38,0.87c0.27,0.53 0.43,0.77 0.6,1c0.16,0.23 0.33,0.44 0.5,0.65c0.16,0.2 0.31,0.38 0.45,0.56c0.24,0.32 0.33,0.46 0.4,0.6c0.06,0.13 0.11,0.25 0.15,0.36c0.04,0.11 0.07,0.22 0.1,0.32c0.08,0.2 0.14,0.3 0.2,0.4c0.07,0.1 0.15,0.19 0.24,0.28c0.09,0.09 0.18,0.17 0.28,0.24c0.19,0.13 0.3,0.17 0.4,0.2c0.1,0.03 0.19,0.06 0.28,0.08c0.09,0.02 0.17,0.05 0.24,0.08c0.13,0.07 0.17,0.14 0.2,0.2c0.04,0.07 0.06,0.14 0.08,0.22c0.03,0.07 0.05,0.15 0.08,0.22c0.07,0.12 0.14,0.17 0.2,0.2c0.07,0.04 0.14,0.06 0.22,0.08c0.07,0.03 0.15,0.05 0.22,0.08c0.12,0.07 0.17,0.14 0.2,0.2c0.03,0.07 0.05,0.15 0.06,0.24c0.01,0.09 0.02,0.18 0.02,0.28c0,0.2 0,0.3 0,0.4c0,0.1 0.01,0.21 0.02,0.32c0.01,0.12 0.03,0.24 0.06,0.36c0.07,0.28 0.13,0.44 0.2,0.6c0.07,0.17 0.14,0.35 0.22,0.54c0.08,0.19 0.15,0.38 0.22,0.58c0.13,0.4 0.17,0.6 0.2,0.8c0.03,0.2 0.05,0.4 0.06,0.6c0.01,0.2 0.02,0.4 0.02,0.6c0,0.4 0,0.6 0,0.8c0,0.2 0.01,0.4 0.04,0.6c0.03,0.2 0.06,0.4 0.13,0.6c0.14,0.41 0.27,0.6 0.4,0.8c0.13,0.2 0.28,0.39 0.43,0.58c0.15,0.19 0.3,0.36 0.43,0.54c0.24,0.31 0.33,0.46 0.4,0.6c0.06,0.13 0.1,0.26 0.13,0.38c0.03,0.12 0.04,0.25 0.04,0.38c0.01,0.28 0,0.44 0.01,0.6c0,0.17 0.01,0.35 0.04,0.54c0.03,0.19 0.06,0.39 0.13,0.58c0.14,0.41 0.27,0.6 0.4,0.8c0.13,0.2 0.28,0.4 0.43,0.6c0.15,0.2 0.3,0.4 0.43,0.6c0.25,0.39 0.33,0.6 0.4,0.8c0.07,0.2 0.12,0.41 0.17,0.62c0.05,0.22 0.1,0.44 0.17,0.66c0.15,0.49 0.27,0.74 0.4,1c0.14,0.27 0.29,0.53 0.45,0.8c0.16,0.26 0.33,0.51 0.5,0.75c0.31,0.44 0.46,0.63 0.6,0.8c0.13,0.16 0.25,0.31 0.36,0.45c0.11,0.14 0.22,0.27 0.32,0.4c0.21,0.28 0.3,0.44 0.4,0.6c0.1,0.16 0.19,0.33 0.28,0.5c0.09,0.16 0.16,0.31 0.24,0.45c0.12,0.24 0.16,0.33 0.2,0.4c0.03,0.06 0.05,0.11 0.06,0.15c0.01,0.04 0.02,0.07 0.02,0.1c0,0.08 0,0.14 0,0.2c0,0.07 0,0.15 0,0.24c0,0.09 0,0.18 0,0.28c0,0.2 0,0.3 0,0.4c0,0.1 0.01,0.19 0.02,0.28c0.01,0.09 0.03,0.17 0.06,0.24c0.07,0.13 0.13,0.17 0.2,0.2c0.07,0.03 0.15,0.03 0.24,0.01c0.09,-0.03 0.19,-0.08 0.28,-0.17c0.22,-0.22 0.3,-0.4 0.4,-0.6c0.1,-0.21 0.2,-0.45 0.28,-0.71c0.09,-0.27 0.17,-0.55 0.24,-0.84c0.13,-0.59 0.17,-0.9 0.2,-1.2c0.04,-0.3 0.07,-0.61 0.12,-0.92c0.05,-0.32 0.11,-0.64 0.21,-0.96c0.22,-0.69 0.41,-1.04 0.6,-1.41c0.21,-0.4 0.46,-0.82 0.73,-1.29c0.29,-0.51 0.6,-1.07 0.91,-1.7c0.7,-1.44 1.04,-2.29 1.4,-3.2c0.38,-0.98 0.76,-2.02 1.14,-3.12c0.4,-1.15 0.79,-2.34 1.18,-3.57c0.81,-2.55 1.2,-3.86 1.6,-5.19c0.4,-1.33 0.8,-2.67 1.2,-4.01c0.4,-1.33 0.8,-2.66 1.2,-3.97c0.79,-2.56 1.2,-3.79 1.6,-5c0.4,-1.19 0.8,-2.35 1.2,-3.49c0.4,-1.13 0.8,-2.25 1.2,-3.36c0.8,-2.2 1.2,-3.3 1.6,-4.41c0.41,-1.12 0.82,-2.25 1.24,-3.4c0.43,-1.18 0.87,-2.38 1.33,-3.62c0.96,-2.61 1.47,-3.98 2,-5.39c0.54,-1.43 1.09,-2.88 1.65,-4.32c0.56,-1.43 1.12,-2.83 1.7,-4.19c1.09,-2.55 1.65,-3.71 2.2,-4.8c0.52,-1.04 1.04,-2.02 1.55,-2.97c0.49,-0.93 0.99,-1.83 1.45,-2.75c0.94,-1.85 1.37,-2.82 1.8,-3.81c0.44,-1.01 0.85,-2.04 1.26,-3.09c0.41,-1.05 0.82,-2.11 1.22,-3.18c0.8,-2.11 1.2,-3.16 1.6,-4.2c0.4,-1.03 0.81,-2.06 1.24,-3.08c0.43,-1.03 0.86,-2.06 1.33,-3.08c0.95,-2.09 1.47,-3.14 1.99,-4.19c0.53,-1.05 1.06,-2.1 1.59,-3.12c0.52,-1 1.03,-1.96 1.5,-2.89c0.88,-1.71 1.26,-2.48 1.6,-3.2c0.32,-0.67 0.61,-1.3 0.9,-1.89c0.27,-0.56 0.53,-1.1 0.81,-1.62c0.55,-1.02 0.87,-1.51 1.2,-2.01c0.34,-0.5 0.69,-1 1.05,-1.5c0.36,-0.5 0.73,-1 1.1,-1.5c0.72,-1 1.06,-1.5 1.4,-2c0.33,-0.49 0.64,-0.99 0.95,-1.48c0.3,-0.48 0.58,-0.96 0.85,-1.44c0.53,-0.92 0.77,-1.36 1,-1.8c0.23,-0.42 0.46,-0.84 0.68,-1.25c0.22,-0.4 0.45,-0.78 0.68,-1.15c0.47,-0.73 0.73,-1.07 1,-1.4c0.27,-0.34 0.55,-0.67 0.84,-1c0.29,-0.34 0.59,-0.69 0.88,-1.05c0.61,-0.76 0.9,-1.17 1.2,-1.6c0.3,-0.43 0.58,-0.87 0.86,-1.31c0.27,-0.43 0.53,-0.86 0.77,-1.27c0.44,-0.75 0.63,-1.09 0.8,-1.4c0.16,-0.28 0.3,-0.54 0.43,-0.77c0.12,-0.22 0.23,-0.41 0.34,-0.59c0.2,-0.33 0.3,-0.47 0.4,-0.61c0.1,-0.13 0.2,-0.26 0.3,-0.38c0.1,-0.13 0.2,-0.25 0.3,-0.38c0.2,-0.28 0.3,-0.44 0.4,-0.6c0.1,-0.17 0.2,-0.34 0.3,-0.52c0.1,-0.17 0.2,-0.35 0.3,-0.52c0.2,-0.32 0.3,-0.46 0.4,-0.6c0.1,-0.13 0.2,-0.25 0.3,-0.36c0.1,-0.11 0.2,-0.22 0.3,-0.32c0.2,-0.2 0.3,-0.3 0.4,-0.4c0.1,-0.1 0.19,-0.19 0.28,-0.28c0.08,-0.08 0.16,-0.16 0.24,-0.24c0.12,-0.12 0.16,-0.17 0.2,-0.2c0.03,-0.02 0.05,-0.04 0.06,-0.03c0.02,0.01 0.02,0.06 0.02,0.11c0.01,0.16 0,0.27 0,0.4c0,0.15 0.01,0.32 0.02,0.51c0.03,0.44 0.19,1.56 0.35,2.24c0.18,0.76 0.42,1.61 0.97,3.01c0.2,0.52 0.44,1.05 0.95,2.22c0.28,0.65 0.58,1.35 0.88,2.11c0.33,0.82 1.01,2.67 1.36,3.71c0.38,1.12 0.76,2.33 1.19,3.63c0.45,1.39 0.94,2.88 1.49,4.46c0.59,1.69 1.95,5.37 2.75,7.37c0.83,2.1 1.73,4.25 2.68,6.45c0.96,2.24 1.96,4.47 2.99,6.69c1.01,2.19 3.04,6.36 4.04,8.31c0.96,1.87 1.91,3.64 2.84,5.34c0.9,1.64 1.78,3.23 2.62,4.77c0.82,1.5 2.39,4.43 3.12,5.88c0.72,1.43 1.4,2.86 2.08,4.27c0.67,1.4 1.32,2.8 1.99,4.18c0.66,1.38 2.02,4.1 2.74,5.44c0.72,1.34 1.47,2.67 2.23,4c0.76,1.33 1.55,2.65 2.34,3.98c0.79,1.33 2.39,4.01 3.19,5.37c0.8,1.35 1.58,2.7 2.34,4.03c0.74,1.3 1.45,2.57 2.12,3.8c0.64,1.17 1.75,3.32 2.21,4.28c0.43,0.89 0.8,1.71 1.13,2.47c0.31,0.71 0.6,1.38 0.88,2.01c0.27,0.6 0.84,1.73 1.16,2.27c0.32,0.54 0.66,1.07 1.01,1.59c0.35,0.52 0.7,1.02 1.04,1.53c0.34,0.5 0.98,1.5 1.26,2c0.28,0.5 0.54,1 0.79,1.51c0.25,0.51 0.5,1.03 0.76,1.55c0.26,0.53 0.82,1.61 1.14,2.16c0.32,0.56 0.66,1.12 1.01,1.68c0.35,0.56 0.7,1.1 1.04,1.63c0.34,0.51 0.97,1.47 1.26,1.9c0.27,0.41 0.52,0.79 0.76,1.15c0.22,0.33 0.43,0.65 0.62,0.95c0.18,0.28 0.5,0.8 0.64,1.05c0.14,0.24 0.27,0.47 0.4,0.7c0.13,0.23 0.25,0.45 0.38,0.68c0.13,0.23 0.41,0.71 0.57,0.97c0.16,0.26 0.33,0.53 0.5,0.79c0.17,0.27 0.35,0.52 0.52,0.78c0.17,0.24 0.48,0.68 0.63,0.87c0.13,0.17 0.26,0.33 0.39,0.46c0.11,0.12 0.22,0.23 0.33,0.32c0.1,0.08 0.3,0.2 0.4,0.24c0.1,0.04 0.2,0.07 0.29,0.1c0.09,0.03 0.18,0.05 0.25,0.08c0.07,0.03 0.2,0.11 0.24,0.17c0.04,0.06 0.07,0.14 0.1,0.21c0.03,0.08 0.05,0.18 0.08,0.27c0.03,0.1 0.11,0.3 0.17,0.4c0.06,0.1 0.13,0.2 0.2,0.29c0.07,0.09 0.15,0.17 0.22,0.25l0.07,0.07" fill="none" id="svg_1" stroke="#000000" stroke-width="5"/>
  <path d="m116.33,331c1.33,-1.99 2.16,-2.75 2.67,-3.19c0.56,-0.48 1.17,-1 1.84,-1.56c0.72,-0.6 2.32,-1.92 3.2,-2.64c0.93,-0.76 1.92,-1.55 2.98,-2.37c1.12,-0.86 2.32,-1.74 3.61,-2.62c1.36,-0.93 4.36,-2.81 6.02,-3.75c1.72,-0.97 3.52,-1.92 5.36,-2.85c1.86,-0.94 3.74,-1.83 5.61,-2.69c1.84,-0.84 5.37,-2.35 7.04,-3.01c1.58,-0.62 3.09,-1.18 4.54,-1.67c1.38,-0.46 2.7,-0.87 3.97,-1.2c1.21,-0.32 3.5,-0.8 4.58,-0.97c1.05,-0.16 2.07,-0.27 3.07,-0.34c0.99,-0.07 1.98,-0.11 2.97,-0.13c1,-0.02 3.05,-0.02 4.11,-0.02c1.09,0 2.2,0 3.32,0.01c1.13,0.01 2.27,0.02 3.41,0.05c1.13,0.02 3.37,0.1 4.46,0.16c1.07,0.06 2.12,0.14 3.15,0.24c1.01,0.1 2,0.22 2.97,0.36c0.95,0.14 2.79,0.5 3.68,0.72c0.88,0.22 1.74,0.47 2.59,0.73c0.85,0.26 1.7,0.55 2.56,0.84c0.86,0.29 2.63,0.89 3.54,1.19c0.93,0.31 1.89,0.62 2.87,0.96c1.01,0.35 2.06,0.74 3.12,1.18c1.11,0.46 3.44,1.54 4.65,2.19c1.26,0.67 2.53,1.39 3.82,2.16c1.3,0.77 2.6,1.57 3.89,2.37c1.28,0.79 3.74,2.35 4.92,3.08c1.14,0.71 2.26,1.39 3.34,2.06c1.06,0.65 2.1,1.28 3.13,1.89c1.01,0.61 3.02,1.81 4.02,2.41c1.01,0.6 2.03,1.22 3.06,1.84c1.06,0.64 2.15,1.3 3.28,1.99c1.17,0.71 3.66,2.24 4.99,3.06c1.38,0.85 2.79,1.73 4.23,2.62c1.46,0.9 2.92,1.8 4.38,2.69c1.44,0.88 4.22,2.55 5.55,3.32c1.28,0.75 2.52,1.46 3.73,2.14c1.17,0.66 2.33,1.3 3.46,1.93c1.12,0.61 3.32,1.82 4.42,2.42c1.1,0.6 2.21,1.2 3.32,1.79c1.12,0.59 2.25,1.18 3.39,1.75c1.15,0.58 3.52,1.7 4.73,2.23c1.22,0.54 2.45,1.06 3.7,1.54c1.24,0.48 2.47,0.94 3.7,1.35c1.21,0.4 3.56,1.08 4.7,1.35c1.11,0.26 2.2,0.47 3.27,0.63c1.05,0.16 2.1,0.29 3.14,0.38c1.04,0.09 3.12,0.21 4.18,0.25c1.07,0.04 2.16,0.07 3.27,0.11c1.14,0.03 2.3,0.07 3.5,0.12c1.24,0.05 3.84,0.22 5.22,0.33c1.42,0.12 2.87,0.26 4.35,0.41c1.5,0.15 3.02,0.3 4.55,0.44c1.53,0.14 4.56,0.38 6.05,0.46c1.47,0.08 2.92,0.13 4.35,0.17c1.41,0.04 2.8,0.05 4.17,0.06c1.35,0.01 3.99,0.01 5.28,0.01c1.27,0 2.52,0 3.75,0c1.21,0 2.4,0 3.57,0l1.15,0" fill="none" id="svg_3" stroke="#f40000" stroke-width="5"/>
  <path d="m422.33,281c5.33,1.83 6.4,2.21 7.61,2.63c1.33,0.48 2.79,1 4.35,1.59c1.68,0.63 3.47,1.32 5.34,2.09c4.04,1.65 6.17,2.6 8.38,3.59c2.27,1.02 4.59,2.1 6.95,3.21c2.39,1.13 4.8,2.29 7.21,3.48c4.83,2.38 7.22,3.59 9.58,4.79c2.33,1.19 4.63,2.37 6.87,3.56c2.2,1.16 4.35,2.31 6.42,3.47c3.97,2.21 5.82,3.32 7.59,4.39c1.7,1.02 3.3,2.02 4.82,2.97c1.43,0.9 2.76,1.75 4.01,2.52c2.19,1.36 3.14,1.92 4.01,2.4c0.77,0.43 1.48,0.8 2.13,1.12c0.58,0.29 1.13,0.53 1.63,0.76c0.93,0.41 1.38,0.61 1.81,0.81c0.42,0.2 0.83,0.4 1.23,0.6c0.38,0.2 0.75,0.39 1.09,0.6c0.65,0.39 0.93,0.6 1.2,0.8c0.27,0.2 0.52,0.42 0.77,0.66c0.25,0.24 0.51,0.51 0.77,0.79c0.57,0.64 0.88,1.01 1.2,1.4c0.34,0.41 0.68,0.83 1.03,1.27c0.35,0.44 0.7,0.88 1.03,1.31c0.64,0.83 0.93,1.22 1.2,1.6c0.26,0.36 0.51,0.71 0.75,1.05c0.24,0.34 0.47,0.67 0.7,1c0.48,0.69 0.74,1.04 1,1.4c0.27,0.37 0.54,0.75 0.82,1.14c0.28,0.39 0.55,0.78 0.82,1.18c0.53,0.79 0.77,1.2 1,1.6c0.23,0.4 0.46,0.82 0.68,1.24c0.23,0.43 0.45,0.87 0.68,1.33c0.48,0.96 0.74,1.47 1,2c0.27,0.53 0.53,1.07 0.8,1.61c0.26,0.53 0.51,1.06 0.75,1.57c0.44,0.95 0.63,1.39 0.8,1.8c0.16,0.39 0.32,0.76 0.47,1.11c0.15,0.35 0.3,0.69 0.47,1.02c0.35,0.69 0.57,1.04 0.8,1.41c0.24,0.38 0.49,0.76 0.75,1.16c0.27,0.4 0.54,0.82 0.8,1.24c0.53,0.87 0.77,1.33 0.99,1.79c0.23,0.46 0.44,0.92 0.63,1.38c0.18,0.44 0.35,0.87 0.49,1.29c0.25,0.75 0.33,1.09 0.4,1.4c0.06,0.28 0.1,0.55 0.13,0.79c0.02,0.23 0.04,0.45 0.04,0.66c0.01,0.4 0,0.6 0,0.8c0,0.2 0.01,0.4 0.02,0.6c0.01,0.2 0.03,0.4 0.06,0.6c0.07,0.4 0.13,0.6 0.2,0.8c0.07,0.2 0.14,0.4 0.22,0.6c0.07,0.2 0.15,0.4 0.22,0.6c0.13,0.4 0.17,0.6 0.23,0.99c0.11,0.69 0.76,1.41 1.03,2.28c0.22,0.71 0.39,1.72 0.67,2.41c0.36,0.88 0.35,1.78 0.35,2.88c0,0.8 0,1.4 0,2.05c0,1.52 0,1.95 0,2.82c0,0.87 0,1.71 0,2.8c0,0.87 0,1.85 0,2.85c0,0.8 0,1.55 0,2.66c0,0.98 0,1.66 0,2.64l0,0.82l-0.06,0.9l-0.44,0.8" fill="none" id="svg_4" stroke="#00ff00" stroke-width="5"/>
 </g>
</svg>